PathFileType	4	(X/Y/Z)	/home/nbianco/projects/addbio/data/HamnerRunning2013/Processed/subject03//results/MarkerData/run300.trc
DataRate	CameraRate	NumFrames	NumMarkers	Units	OrigDataRate	OrigDataStartFrame	OrigNumFrames
100	100	9	45	m	100	133	214
Frame#	Time	C7			CLAV			LACR			LASI			LCAL			LFAradius			LFAsuperior			LFAulna			LLEL			LMEL			LMT5			LPSH			LPSI			LTB1			LTB2			LTB3			LTH1			LTH2			LTH3			LTOE			LUA1			LUA2			LUA3			RACR			RASI			RCAL			RFAradius			RFAsuperior			RFAulna			RLEL			RLMAL			RMEL			RMMAL			RMT5			RPSI			RTB1			RTB2			RTB3			RTH1			RTH2			RTH3			RTOE			RUA1			RUA2			RUA3		
		X1	Y1	Z1	X2	Y2	Z2	X3	Y3	Z3	X4	Y4	Z4	X5	Y5	Z5	X6	Y6	Z6	X7	Y7	Z7	X8	Y8	Z8	X9	Y9	Z9	X10	Y10	Z10	X11	Y11	Z11	X12	Y12	Z12	X13	Y13	Z13	X14	Y14	Z14	X15	Y15	Z15	X16	Y16	Z16	X17	Y17	Z17	X18	Y18	Z18	X19	Y19	Z19	X20	Y20	Z20	X21	Y21	Z21	X22	Y22	Z22	X23	Y23	Z23	X24	Y24	Z24	X25	Y25	Z25	X26	Y26	Z26	X27	Y27	Z27	X28	Y28	Z28	X29	Y29	Z29	X30	Y30	Z30	X31	Y31	Z31	X32	Y32	Z32	X33	Y33	Z33	X34	Y34	Z34	X35	Y35	Z35	X36	Y36	Z36	X37	Y37	Z37	X38	Y38	Z38	X39	Y39	Z39	X40	Y40	Z40	X41	Y41	Z41	X42	Y42	Z42	X43	Y43	Z43	X44	Y44	Z44	X45	Y45	Z45

134	1.79	0.856279	1.6146	-0.32438	0.966505	1.53012	-0.282438	0.92093	1.60751	-0.471022	0.952937	1.08838	-0.431626	0.384713	0.273946	-0.337461	1.0191	1.38746	-0.440178	0.945977	1.25588	-0.528527	1.05421	1.32929	-0.428508	0.884801	1.26229	-0.605146	0.826215	1.25145	-0.529203	0.438543	0.107154	-0.409619	0.84663	1.56323	-0.502205	0.790565	1.13873	-0.366541	0.663448	0.458536	-0.422444	0.534768	0.424457	-0.434507	0.538765	0.311386	-0.394822	0.788334	0.892184	-0.482673	0.819194	0.765503	-0.47192	0.73422	0.69002	-0.459529	0.496513	0.0838986	-0.34497	0.876213	1.47201	-0.557184	0.821948	1.38542	-0.548749	0.860869	1.34012	-0.5941	0.866172	1.58377	-0.166209	0.950633	1.1029	-0.200904	0.94895	0.170717	-0.290595	0.855788	1.2329	-0.117289	0.660369	1.26865	-0.0852081	0.823788	1.17417	-0.105883	0.624765	1.33945	-0.07665	1.00424	0.188268	-0.220906	0.619267	1.33309	-0.166706	1.03394	0.209854	-0.298437	1.08895	0.110449	-0.184397	0.789234	1.136	-0.277415	1.10166	0.47715	-0.227498	1.05158	0.425894	-0.187302	1.05837	0.298941	-0.233496	0.938297	0.853577	-0.159661	1.03927	0.827232	-0.17612	1.01735	0.707789	-0.188652	1.16448	0.126339	-0.247862	0.757422	1.47309	-0.0964125	0.679372	1.45262	-0.14525	0.647115	1.40557	-0.102039
135	1.8	0.856035	1.61739	-0.322796	0.966525	1.53356	-0.281172	0.920762	1.612	-0.468862	0.954208	1.09241	-0.432292	0.375885	0.291612	-0.336958	1.01705	1.39324	-0.436801	0.946092	1.26111	-0.526686	1.05158	1.33495	-0.424302	0.886513	1.26718	-0.604653	0.826417	1.25621	-0.529975	0.418662	0.122866	-0.411734	0.846853	1.56726	-0.50049	0.792024	1.14148	-0.367441	0.660275	0.463423	-0.4225	0.530031	0.435079	-0.434729	0.529154	0.322044	-0.395597	0.790898	0.895915	-0.483617	0.822454	0.768563	-0.470478	0.737012	0.693126	-0.45915	0.47822	0.0928504	-0.34943	0.877021	1.47683	-0.55572	0.822958	1.39034	-0.548428	0.862397	1.34536	-0.593854	0.866188	1.58702	-0.165104	0.952088	1.10524	-0.202244	0.975165	0.157366	-0.290203	0.855371	1.23715	-0.118188	0.659074	1.27182	-0.0894828	0.82357	1.17828	-0.10734	0.623146	1.34248	-0.0813138	1.03038	0.17838	-0.221778	0.619783	1.33657	-0.17089	1.05693	0.203428	-0.29937	1.12247	0.106125	-0.18907	0.790584	1.13842	-0.277838	1.10325	0.474546	-0.226807	1.05762	0.419342	-0.186733	1.07472	0.293663	-0.23399	0.934843	0.851919	-0.1616	1.03505	0.823071	-0.174904	1.00971	0.704254	-0.188072	1.1947	0.130521	-0.253679	0.75646	1.47653	-0.0969795	0.679215	1.45655	-0.14754	0.646184	1.40881	-0.105796
136	1.81	0.856039	1.61932	-0.321058	0.966687	1.53582	-0.279908	0.920811	1.61519	-0.466847	0.955234	1.09561	-0.432958	0.366737	0.308569	-0.33596	1.01537	1.39688	-0.433955	0.945724	1.26487	-0.525562	1.04898	1.33832	-0.420814	0.887507	1.27112	-0.604587	0.826417	1.25996	-0.531112	0.400427	0.139729	-0.41513	0.847121	1.57028	-0.498598	0.792685	1.14291	-0.368027	0.658743	0.467078	-0.422521	0.526717	0.445571	-0.433999	0.52038	0.332572	-0.396331	0.795073	0.897364	-0.484515	0.827804	0.769917	-0.468346	0.741904	0.694338	-0.458553	0.459792	0.104941	-0.354908	0.877446	1.4806	-0.554092	0.823425	1.3942	-0.547914	0.863287	1.34967	-0.593694	0.866596	1.58909	-0.163722	0.953248	1.10673	-0.203499	0.998032	0.146976	-0.290293	0.85577	1.23988	-0.118682	0.658716	1.27343	-0.0929908	0.82421	1.1808	-0.108556	0.62244	1.34396	-0.0851722	1.05306	0.17082	-0.222893	0.621015	1.33837	-0.174132	1.07648	0.198538	-0.300393	1.15104	0.103481	-0.19388	0.791318	1.13953	-0.278375	1.10332	0.471607	-0.226562	1.06182	0.413217	-0.18677	1.08844	0.289432	-0.234934	0.93158	0.849973	-0.162517	1.03093	0.817692	-0.174166	1.00183	0.699523	-0.186465	1.21983	0.135166	-0.259191	0.756091	1.47847	-0.0972466	0.679501	1.45888	-0.149449	0.645912	1.41058	-0.108943
137	1.82	0.856304	1.62048	-0.319218	0.96696	1.53688	-0.27863	0.921158	1.61709	-0.46482	0.956099	1.09792	-0.433559	0.357647	0.325036	-0.334972	1.01408	1.39834	-0.431714	0.944854	1.2671	-0.525149	1.04664	1.33935	-0.418261	0.88767	1.27408	-0.604909	0.825979	1.26275	-0.532424	0.384984	0.157748	-0.419622	0.847464	1.57235	-0.496622	0.792697	1.14313	-0.368444	0.659035	0.469475	-0.422336	0.525326	0.45575	-0.432494	0.512974	0.342992	-0.396967	0.800168	0.896761	-0.485017	0.834022	0.769829	-0.466215	0.748142	0.693792	-0.457788	0.44289	0.11944	-0.360889	0.877606	1.48331	-0.55248	0.823452	1.39704	-0.547403	0.863525	1.35296	-0.593626	0.867401	1.58993	-0.162096	0.954056	1.10753	-0.204369	1.01645	0.139669	-0.291536	0.856967	1.24101	-0.118765	0.659275	1.27347	-0.0955951	0.825689	1.1817	-0.109448	0.62264	1.34385	-0.0880761	1.07108	0.165397	-0.224691	0.622796	1.33926	-0.178194	1.09193	0.195068	-0.301837	1.17318	0.10208	-0.198434	0.791633	1.13922	-0.279263	1.10222	0.468636	-0.226942	1.06448	0.407758	-0.18735	1.09901	0.286212	-0.236522	0.929024	0.848157	-0.162072	1.02697	0.811687	-0.173422	0.994033	0.694328	-0.18474	1.23917	0.139167	-0.264172	0.756321	1.47884	-0.0971808	0.68024	1.45956	-0.150776	0.646292	1.41081	-0.111326
138	1.83	0.856767	1.62079	-0.317273	0.967324	1.5367	-0.277339	0.921802	1.61774	-0.462742	0.956773	1.0991	-0.43407	0.349655	0.341293	-0.334269	1.01315	1.39761	-0.430053	0.943455	1.2678	-0.525406	1.04481	1.33802	-0.416894	0.886927	1.27607	-0.605569	0.824846	1.26457	-0.533816	0.372868	0.176604	-0.424694	0.847897	1.57349	-0.494649	0.792359	1.14213	-0.368895	0.661323	0.470458	-0.421782	0.526409	0.465215	-0.430726	0.507562	0.353117	-0.397432	0.805233	0.894568	-0.484949	0.840123	0.768492	-0.464685	0.755065	0.691526	-0.456843	0.428615	0.134862	-0.366903	0.877604	1.48494	-0.551053	0.823117	1.39889	-0.547052	0.863135	1.3552	-0.59371	0.868571	1.5895	-0.160314	0.954548	1.10767	-0.204707	1.02947	0.134925	-0.29435	0.858932	1.24052	-0.118445	0.660725	1.27192	-0.0972102	0.827967	1.18097	-0.109887	0.623718	1.34211	-0.0899291	1.08344	0.16149	-0.227434	0.625031	1.33957	-0.183827	1.10278	0.192768	-0.304209	1.18794	0.101226	-0.202551	0.791716	1.13753	-0.2805	1.10028	0.46578	-0.227776	1.06573	0.403089	-0.188288	1.10597	0.283706	-0.238633	0.927158	0.84626	-0.160363	1.02298	0.805358	-0.17246	0.987031	0.68937	-0.183582	1.25229	0.141673	-0.268575	0.757131	1.47763	-0.0967091	0.681389	1.45857	-0.1513	0.647292	1.40939	-0.112762
139	1.84	0.85732	1.62006	-0.315227	0.967762	1.53522	-0.276055	0.922689	1.61715	-0.46078	0.957172	1.09892	-0.434511	0.344208	0.357523	-0.333873	1.01258	1.3947	-0.42891	0.941497	1.26702	-0.526297	1.04357	1.33436	-0.416804	0.885258	1.27711	-0.606537	0.822956	1.26546	-0.535318	0.363883	0.19571	-0.429767	0.848428	1.57369	-0.492737	0.791906	1.13986	-0.369415	0.665624	0.469941	-0.420996	0.530216	0.473505	-0.429262	0.504656	0.362562	-0.397772	0.809579	0.891134	-0.484379	0.845785	0.765934	-0.463979	0.762344	0.687559	-0.455724	0.416942	0.150034	-0.372604	0.87748	1.48551	-0.549904	0.822412	1.39984	-0.546918	0.86215	1.35639	-0.594022	0.870028	1.58778	-0.158493	0.954834	1.10706	-0.204617	1.0365	0.131658	-0.29865	0.861629	1.23843	-0.117748	0.663028	1.26874	-0.0978116	0.83101	1.17863	-0.109845	0.625631	1.33867	-0.090691	1.08958	0.158174	-0.231023	0.627584	1.33838	-0.189032	1.10872	0.191093	-0.307882	1.19519	0.0998652	-0.206441	0.791672	1.13475	-0.281764	1.09773	0.462878	-0.228712	1.06531	0.399007	-0.189472	1.10902	0.281288	-0.240996	0.925441	0.843834	-0.157697	1.01898	0.798885	-0.17154	0.981689	0.68501	-0.182936	1.25904	0.142234	-0.272336	0.758469	1.47487	-0.0957781	0.68285	1.45593	-0.150878	0.648867	1.40628	-0.113095
140	1.85	0.857856	1.61813	-0.313143	0.968254	1.53245	-0.274841	0.923719	1.61531	-0.45907	0.95724	1.09723	-0.434917	0.342462	0.373669	-0.333725	1.01234	1.38963	-0.428277	0.938945	1.2648	-0.527821	1.04266	1.32848	-0.417803	0.882693	1.27722	-0.607796	0.820392	1.26545	-0.536948	0.357548	0.214441	-0.434376	0.849025	1.57285	-0.490921	0.791404	1.13633	-0.36985	0.671824	0.468047	-0.420395	0.536634	0.48035	-0.428423	0.504491	0.371008	-0.398185	0.813081	0.886517	-0.483485	0.851259	0.762109	-0.463948	0.770037	0.681985	-0.454544	0.407425	0.164542	-0.377772	0.877203	1.48506	-0.549037	0.821287	1.39997	-0.546977	0.86059	1.3566	-0.59457	0.871662	1.58476	-0.156733	0.954994	1.1056	-0.204352	1.03742	0.128636	-0.303731	0.865011	1.2348	-0.116744	0.666126	1.26387	-0.0974371	0.834795	1.17472	-0.109413	0.628318	1.33352	-0.0903519	1.08958	0.154534	-0.235059	0.630241	1.33423	-0.190294	1.10956	0.18911	-0.312527	1.19556	0.0967616	-0.21052	0.791504	1.13131	-0.282646	1.09459	0.459509	-0.229664	1.06289	0.394975	-0.190985	1.10812	0.278183	-0.243488	0.923463	0.840704	-0.15443	1.01549	0.79276	-0.170947	0.978468	0.681174	-0.182449	1.25964	0.140629	-0.275406	0.760255	1.47062	-0.0944078	0.684504	1.45166	-0.149477	0.650978	1.40143	-0.112281
141	1.86	0.858301	1.61495	-0.311139	0.968764	1.52843	-0.273796	0.92475	1.61229	-0.457536	0.956981	1.09407	-0.43528	0.344771	0.389404	-0.333829	1.01229	1.38245	-0.428212	0.935745	1.26121	-0.52997	1.04162	1.32046	-0.419568	0.879274	1.27642	-0.609328	0.817181	1.26458	-0.538626	0.353555	0.232253	-0.438234	0.849579	1.57089	-0.489232	0.790804	1.13171	-0.370009	0.679795	0.465073	-0.420385	0.54539	0.485753	-0.428224	0.50705	0.378376	-0.398906	0.816069	0.880608	-0.482377	0.857004	0.757043	-0.464313	0.778414	0.675013	-0.453523	0.400021	0.178394	-0.382274	0.876685	1.48364	-0.548394	0.819697	1.39932	-0.547153	0.858446	1.35589	-0.595276	0.873357	1.58046	-0.155094	0.954961	1.10319	-0.204097	1.03257	0.124966	-0.308465	0.869033	1.22965	-0.115526	0.669947	1.2573	-0.0961679	0.839305	1.16931	-0.108695	0.631711	1.32666	-0.0889174	1.08416	0.149928	-0.238997	0.632927	1.32654	-0.186069	1.1053	0.185699	-0.316981	1.1901	0.090933	-0.215059	0.791137	1.12741	-0.282896	1.0908	0.455234	-0.230955	1.0585	0.390435	-0.192983	1.1036	0.273803	-0.246143	0.921511	0.837094	-0.151209	1.01331	0.787874	-0.170533	0.977075	0.677579	-0.182169	1.25463	0.136467	-0.27806	0.762411	1.46494	-0.0926687	0.686278	1.44579	-0.147143	0.653612	1.39482	-0.110399
142	1.87	0.858634	1.61056	-0.309342	0.969254	1.52324	-0.273006	0.925623	1.60821	-0.456046	0.956424	1.08958	-0.435497	0.350756	0.404275	-0.334284	1.0122	1.37326	-0.428757	0.931836	1.25628	-0.532709	1.04011	1.31042	-0.421935	0.875034	1.27474	-0.611082	0.813254	1.26289	-0.540256	0.351952	0.248704	-0.44125	0.849945	1.56774	-0.487706	0.790024	1.12613	-0.369799	0.689452	0.461337	-0.421119	0.556275	0.489872	-0.428568	0.512189	0.384743	-0.400057	0.819005	0.873375	-0.481085	0.863387	0.750915	-0.464882	0.78772	0.666958	-0.452897	0.395226	0.191557	-0.386036	0.875826	1.48122	-0.547914	0.817624	1.39786	-0.547378	0.855685	1.35429	-0.596062	0.875021	1.57496	-0.153596	0.954531	1.09969	-0.203819	1.0226	0.120328	-0.311843	0.873668	1.22302	-0.114159	0.674434	1.24907	-0.094087	0.844498	1.16243	-0.107718	0.635736	1.31814	-0.0864283	1.07431	0.144066	-0.242256	0.635885	1.31625	-0.178541	1.09623	0.180094	-0.319991	1.17972	0.0822301	-0.219889	0.790487	1.12288	-0.282478	1.08631	0.449761	-0.2329	1.05257	0.385122	-0.195384	1.096	0.267932	-0.248813	0.920343	0.833242	-0.149194	1.0129	0.784883	-0.170113	0.976735	0.674007	-0.18253	1.24471	0.129027	-0.281071	0.76491	1.45789	-0.0906158	0.688169	1.43834	-0.14394	0.656779	1.38649	-0.107572
